<?xml version="1.0" standalone="no"?>
<!DOCTYPE svg PUBLIC "-//W3C//DTD SVG 20010904//EN"
 "http://www.w3.org/TR/2001/REC-SVG-20010904/DTD/svg10.dtd">
<svg version="1.0" xmlns="http://www.w3.org/2000/svg"
 width="564.000000pt" height="340.000000pt" viewBox="0 0 564.000000 340.000000"
 preserveAspectRatio="xMidYMid meet">

<g transform="translate(0.000000,340.000000) scale(0.100000,-0.100000)"
fill="#000000" stroke="none">
<path d="M2982 3300 c-45 -4 -86 -10 -89 -14 -4 -3 20 -3 53 0 32 3 109 9 169
13 102 8 104 8 30 8 -44 0 -117 -3 -163 -7z"/>
<path d="M3573 3303 c9 -2 25 -2 35 0 9 3 1 5 -18 5 -19 0 -27 -2 -17 -5z"/>
<path d="M3668 3293 c22 -9 13 -23 -15 -23 l-28 0 24 -13 c13 -6 36 -34 52
-62 44 -79 65 -117 84 -153 11 -22 22 -31 32 -28 8 3 37 6 64 6 27 0 49 4 49
8 0 4 -28 6 -62 4 -71 -4 -61 -12 -123 103 -19 35 -35 67 -35 70 0 3 13 -1 30
-10 51 -26 47 -16 -4 13 -50 27 -76 59 -40 49 11 -4 33 -8 49 -11 21 -4 19 -2
-9 7 -48 16 -63 41 -19 32 23 -4 24 -4 8 4 -11 5 -31 10 -45 10 -14 -1 -19 -3
-12 -6z"/>
<path d="M3298 3283 c39 -2 105 -2 145 0 39 1 7 3 -73 3 -80 0 -112 -2 -72 -3z"/>
<path d="M2838 3273 c6 -2 18 -2 25 0 6 3 1 5 -13 5 -14 0 -19 -2 -12 -5z"/>
<path d="M3040 3270 l-55 -7 52 -1 c28 -1 55 3 58 8 3 6 5 9 3 8 -2 -1 -28 -4
-58 -8z"/>
<path d="M3568 3273 c12 -2 30 -2 40 0 9 3 -1 5 -23 4 -22 0 -30 -2 -17 -4z"/>
<path d="M3765 3270 c11 -5 27 -9 35 -9 9 0 8 4 -5 9 -11 5 -27 9 -35 9 -9 0
-8 -4 5 -9z"/>
<path d="M2766 3263 c-14 -4 -16 -7 -6 -13 9 -6 2 -11 -22 -18 -69 -19 -197
-74 -195 -84 1 -6 -4 -13 -12 -16 -9 -3 -11 0 -6 8 4 7 -5 5 -24 -4 -32 -17
-43 -30 -16 -20 26 10 16 -3 -17 -25 -18 -11 -27 -21 -20 -21 7 0 10 -5 6 -11
-3 -6 8 -3 26 6 22 11 29 20 21 24 -8 5 8 18 43 37 30 15 52 32 50 36 -3 4 -1
8 5 8 26 0 19 -33 -9 -38 -24 -4 -60 -25 -60 -34 0 -14 22 -9 66 17 23 13 81
38 128 53 47 16 83 32 80 34 -2 3 7 3 22 0 19 -3 25 -1 20 6 -5 8 -2 10 8 6 9
-3 24 -3 34 1 9 4 35 8 57 9 22 2 64 7 93 11 79 12 84 0 52 -128 l-25 -102
-65 -6 -65 -6 70 1 c65 1 70 3 76 26 6 23 7 23 8 3 1 -12 -6 -29 -15 -37 -8
-9 -11 -16 -6 -16 22 0 34 35 37 105 1 42 6 79 10 83 4 4 5 -9 2 -28 l-6 -35
14 30 c18 39 18 66 0 92 -14 20 -13 22 2 26 10 3 -48 4 -129 3 -81 0 -140 -4
-130 -8 9 -5 -3 -5 -28 -2 -53 7 -60 12 -40 24 13 9 13 10 0 9 -8 -1 -24 -4
-34 -6z m-281 -183 c-3 -5 -11 -10 -16 -10 -6 0 -7 5 -4 10 3 6 11 10 16 10 6
0 7 -4 4 -10z"/>
<path d="M3168 3261 c11 -6 9 -23 -7 -86 -12 -43 -21 -86 -20 -94 1 -17 48
155 49 177 0 6 -8 12 -17 12 -14 0 -15 -2 -5 -9z"/>
<path d="M2923 3253 c9 -2 23 -2 30 0 6 3 -1 5 -18 5 -16 0 -22 -2 -12 -5z"/>
<path d="M3218 3248 c-19 -14 -38 -138 -22 -138 5 0 7 -25 6 -55 l-4 -55 109
2 108 2 -104 3 -104 4 7 72 c4 40 9 88 12 107 3 27 2 31 -5 15 -9 -19 -10 -18
-10 5 l-1 25 162 -1 163 0 -135 6 -135 6 125 2 c69 1 156 -1 193 -5 60 -5 70
-9 82 -32 8 -14 14 -21 15 -15 0 7 -8 22 -19 35 -18 22 -24 23 -222 27 -160 3
-208 1 -221 -10z m-11 -110 c-3 -8 -6 -5 -6 6 -1 11 2 17 5 13 3 -3 4 -12 1
-19z"/>
<path d="M3828 3253 c7 -3 16 -2 19 1 4 3 -2 6 -13 5 -11 0 -14 -3 -6 -6z"/>
<path d="M2708 3243 c7 -3 16 -2 19 1 4 3 -2 6 -13 5 -11 0 -14 -3 -6 -6z"/>
<path d="M3868 3243 c7 -3 16 -2 19 1 4 3 -2 6 -13 5 -11 0 -14 -3 -6 -6z"/>
<path d="M2668 3233 c7 -3 16 -2 19 1 4 3 -2 6 -13 5 -11 0 -14 -3 -6 -6z"/>
<path d="M3578 3223 c7 -3 16 -2 19 1 4 3 -2 6 -13 5 -11 0 -14 -3 -6 -6z"/>
<path d="M3818 3223 c7 -3 16 -2 19 1 4 3 -2 6 -13 5 -11 0 -14 -3 -6 -6z"/>
<path d="M3960 3215 c46 -18 64 -17 25 0 -16 8 -37 14 -45 14 -8 0 1 -7 20
-14z"/>
<path d="M2570 3205 c-33 -19 -21 -19 21 0 19 8 27 14 19 14 -8 0 -26 -6 -40
-14z"/>
<path d="M3875 3206 c17 -7 41 -16 55 -20 20 -5 19 -3 -5 8 -16 7 -41 16 -55
20 -20 5 -19 3 5 -8z"/>
<path d="M3646 3168 c16 -18 30 -35 32 -37 1 -2 2 0 2 5 0 12 -45 64 -56 64
-4 0 5 -15 22 -32z"/>
<path d="M4030 3190 c8 -5 22 -9 30 -9 10 0 8 3 -5 9 -27 12 -43 12 -25 0z"/>
<path d="M3680 3178 c0 -3 18 -36 40 -74 22 -37 37 -70 35 -72 -3 -3 -22 -8
-42 -12 l-38 -8 35 -1 c64 -2 67 9 26 85 -36 66 -56 95 -56 82z"/>
<path d="M3804 3165 c11 -8 25 -15 30 -15 6 0 2 7 -8 15 -11 8 -25 15 -30 15
-6 0 -2 -7 8 -15z"/>
<path d="M4080 3176 c0 -2 7 -7 16 -10 8 -3 12 -2 9 4 -6 10 -25 14 -25 6z"/>
<path d="M2450 3160 c-8 -5 -10 -10 -5 -10 6 0 17 5 25 10 8 5 11 10 5 10 -5
0 -17 -5 -25 -10z"/>
<path d="M3776 3151 c-3 -4 2 -17 10 -27 14 -17 15 -17 10 -1 -6 20 6 22 36 6
12 -6 18 -7 14 -1 -9 14 -65 32 -70 23z"/>
<path d="M4130 3152 c8 -5 26 -13 40 -16 17 -5 20 -4 10 2 -8 5 -26 13 -40 16
-17 5 -20 4 -10 -2z"/>
<path d="M2360 3120 c-19 -11 -30 -19 -25 -19 6 0 26 8 45 19 19 11 31 19 25
19 -5 0 -26 -8 -45 -19z"/>
<path d="M3884 3124 c21 -12 25 -18 16 -24 -9 -6 -6 -11 11 -20 19 -10 22 -10
12 0 -6 7 -9 18 -7 24 3 7 -7 18 -21 24 -37 17 -45 14 -11 -4z"/>
<path d="M4214 3116 c11 -9 24 -16 30 -16 12 0 7 5 -24 19 -24 11 -24 11 -6
-3z"/>
<path d="M3682 3095 c0 -16 2 -22 5 -12 2 9 2 23 0 30 -3 6 -5 -1 -5 -18z"/>
<path d="M4130 3110 c20 -13 33 -13 25 0 -3 6 -14 10 -23 10 -15 0 -15 -2 -2
-10z"/>
<path d="M3175 3045 c-3 -31 -5 -59 -2 -61 3 -3 8 20 12 51 3 31 5 59 2 61 -3
3 -8 -20 -12 -51z"/>
<path d="M2396 3074 c-17 -9 -24 -19 -18 -23 6 -4 -6 -20 -28 -39 l-39 -33
-88 6 c-48 3 -95 6 -103 7 -8 1 -40 0 -70 -2 -45 -3 -37 -5 45 -10 55 -4 124
-8 153 -9 l53 -1 -3 -42 c-3 -42 -4 -43 -43 -48 l-40 -6 45 -5 c25 -3 52 -2
60 2 10 6 11 8 3 9 -8 0 -13 15 -13 41 0 35 6 45 45 81 24 22 43 44 42 48 -1
5 7 16 18 24 26 20 18 19 -19 0z"/>
<path d="M3820 3070 c6 -11 16 -20 22 -20 6 0 3 9 -7 20 -10 11 -20 20 -22 20
-2 0 1 -9 7 -20z"/>
<path d="M3970 3071 c14 -11 30 -21 35 -22 6 -1 -6 -5 -25 -9 -26 -6 -17 -7
40 -7 41 0 59 2 40 4 -19 3 -46 12 -60 22 -40 28 -58 35 -30 12z"/>
<path d="M4527 3023 l2 -68 -13 51 c-7 28 -16 57 -20 63 -4 7 -34 10 -74 9
l-67 -1 65 -7 c50 -4 58 -7 35 -11 l-30 -6 33 -2 c47 -2 51 -25 11 -69 -31
-34 -31 -35 -3 -9 17 15 33 24 37 20 11 -10 8 -59 -5 -88 -10 -22 -17 -25 -61
-25 -43 0 -48 2 -42 18 7 20 0 12 -39 -41 l-28 -39 -74 4 c-41 2 -74 1 -74 -2
1 -3 22 -15 48 -28 42 -20 44 -20 22 -2 l-25 20 50 0 c28 0 59 7 69 15 23 17
60 20 50 4 -4 -7 23 -10 90 -7 53 1 96 5 96 8 0 3 -9 12 -20 20 -18 13 -20 26
-20 127 0 62 -3 113 -7 113 -5 0 -7 -30 -6 -67z m3 -108 c0 -25 -4 -35 -16
-35 -11 0 -14 5 -9 18 4 9 10 25 12 35 8 27 13 20 13 -18z m0 -55 c0 -6 -33
-10 -80 -10 -47 0 -80 4 -80 10 0 6 33 10 80 10 47 0 80 -4 80 -10z"/>
<path d="M2250 3065 c-14 -8 -20 -14 -15 -14 6 0 21 6 35 14 14 8 21 14 15 14
-5 0 -21 -6 -35 -14z"/>
<path d="M4233 3073 c9 -2 23 -2 30 0 6 3 -1 5 -18 5 -16 0 -22 -2 -12 -5z"/>
<path d="M3684 3050 c-5 -5 -41 -12 -79 -15 -39 -4 -95 -11 -125 -15 -47 -8
-43 -8 30 -4 140 8 206 21 189 38 -3 3 -10 1 -15 -4z"/>
<path d="M4388 3053 c7 -3 16 -2 19 1 4 3 -2 6 -13 5 -11 0 -14 -3 -6 -6z"/>
<path d="M2175 3029 c-16 -10 -25 -19 -20 -19 6 0 24 9 40 20 17 11 26 20 20
19 -5 0 -23 -9 -40 -20z"/>
<path d="M4223 3043 c15 -2 37 -2 50 0 12 2 0 4 -28 4 -27 0 -38 -2 -22 -4z"/>
<path d="M2415 3030 c-3 -6 1 -7 9 -4 18 7 21 14 7 14 -6 0 -13 -4 -16 -10z"/>
<path d="M2451 3014 c-15 -19 -18 -31 -11 -39 5 -6 7 -15 3 -19 -4 -4 31 -4
77 0 47 3 130 5 185 4 55 -1 98 1 95 3 -3 3 -32 7 -65 8 -98 2 -145 11 -145
25 0 15 -27 44 -41 44 -5 0 0 -9 11 -20 23 -23 26 -40 8 -41 -7 0 -34 -4 -61
-8 -71 -12 -85 23 -22 57 16 9 17 11 3 12 -9 0 -26 -12 -37 -26z"/>
<path d="M3133 3000 c0 -25 2 -35 4 -22 2 12 2 32 0 45 -2 12 -4 2 -4 -23z"/>
<path d="M3598 3003 c12 -2 32 -2 45 0 12 2 2 4 -23 4 -25 0 -35 -2 -22 -4z"/>
<path d="M3478 2993 c6 -2 18 -2 25 0 6 3 1 5 -13 5 -14 0 -19 -2 -12 -5z"/>
<path d="M3812 2990 c4 -20 -43 -25 -74 -9 -20 11 -21 10 -11 -3 7 -8 11 -17
9 -19 -3 -2 16 -2 40 0 l44 3 0 -36 c0 -21 -5 -36 -12 -36 -9 0 -9 -3 0 -12 8
-8 8 -17 1 -30 -14 -27 -7 -31 32 -19 30 9 30 10 6 7 -25 -3 -28 -1 -22 18 10
30 6 129 -6 141 -7 7 -9 5 -7 -5z"/>
<path d="M2755 2984 c72 -8 155 -8 155 -1 0 4 -42 6 -92 5 -51 0 -79 -3 -63
-4z"/>
<path d="M3263 2983 c26 -2 67 -2 90 0 23 2 2 3 -48 3 -49 0 -68 -1 -42 -3z"/>
<path d="M3630 2980 c19 -6 12 -8 -29 -8 -57 0 -87 -16 -61 -32 8 -5 23 -10
32 -10 9 0 24 -3 34 -7 12 -4 15 -3 10 5 -5 8 2 12 19 12 17 0 24 -4 19 -11
-4 -7 -1 -10 6 -7 8 2 16 10 18 18 4 10 -8 12 -56 7 -36 -4 -64 -3 -67 3 -4 6
15 10 47 11 29 1 64 4 78 8 24 7 24 7 -9 14 -44 9 -73 7 -41 -3z"/>
<path d="M1928 2973 c12 -2 32 -2 45 0 12 2 2 4 -23 4 -25 0 -35 -2 -22 -4z"/>
<path d="M2360 2968 c0 -14 8 -18 38 -17 34 2 34 2 7 6 -16 3 -33 10 -37 16
-5 8 -8 6 -8 -5z"/>
<path d="M2998 2973 c7 -3 16 -2 19 1 4 3 -2 6 -13 5 -11 0 -14 -3 -6 -6z"/>
<path d="M1863 2963 c9 -2 23 -2 30 0 6 3 -1 5 -18 5 -16 0 -22 -2 -12 -5z"/>
<path d="M1818 2953 c7 -3 16 -2 19 1 4 3 -2 6 -13 5 -11 0 -14 -3 -6 -6z"/>
<path d="M2058 2953 c6 -2 18 -2 25 0 6 3 1 5 -13 5 -14 0 -19 -2 -12 -5z"/>
<path d="M2916 2942 c-11 -10 -80 -32 -106 -33 -15 -1 -7 -5 20 -10 25 -4 57
-10 73 -13 15 -3 27 -1 27 4 0 6 -16 10 -36 10 -21 0 -33 4 -29 10 11 17 60
11 83 -10 17 -16 26 -18 40 -11 16 10 15 10 -3 11 -11 0 -31 9 -45 20 -24 19
-24 20 -3 20 12 0 23 -5 25 -10 2 -7 15 -7 38 0 22 6 38 6 44 0 6 -6 14 -10
19 -10 5 0 2 6 -5 13 -13 13 -131 20 -142 9z"/>
<path d="M3120 2942 c0 -7 -8 -12 -17 -12 -15 0 -16 -1 -1 -12 9 -7 19 -26 21
-43 4 -27 4 -27 6 7 l1 36 63 6 c34 4 82 8 107 10 25 2 -1 2 -57 1 -60 -1
-107 3 -113 9 -7 7 -10 6 -10 -2z"/>
<path d="M3403 2943 c15 -2 37 -2 50 0 12 2 0 4 -28 4 -27 0 -38 -2 -22 -4z"/>
<path d="M1685 2930 c-14 -7 -8 -8 20 -3 22 3 42 7 44 9 9 8 -45 2 -64 -6z"/>
<path d="M1948 2933 c6 -2 18 -2 25 0 6 3 1 5 -13 5 -14 0 -19 -2 -12 -5z"/>
<path d="M1908 2923 c7 -3 16 -2 19 1 4 3 -2 6 -13 5 -11 0 -14 -3 -6 -6z"/>
<path d="M1835 2910 c-13 -5 -14 -9 -5 -9 8 0 24 4 35 9 13 5 14 9 5 9 -8 0
-24 -4 -35 -9z"/>
<path d="M1578 2903 c6 -2 18 -2 25 0 6 3 1 5 -13 5 -14 0 -19 -2 -12 -5z"/>
<path d="M1505 2888 c-16 -6 -35 -17 -43 -24 -7 -7 -18 -11 -25 -9 -7 3 -25
-6 -42 -20 l-30 -25 30 15 c17 8 49 20 73 25 24 6 40 15 36 21 -3 6 5 7 23 4
20 -5 24 -4 14 3 -11 8 -10 11 5 15 11 3 13 5 4 5 -8 0 -28 -4 -45 -10z"/>
<path d="M1745 2885 c-39 -14 -40 -14 -5 -8 41 7 82 22 60 22 -8 0 -33 -7 -55
-14z"/>
<path d="M2653 2893 c15 -2 37 -2 50 0 12 2 0 4 -28 4 -27 0 -38 -2 -22 -4z"/>
<path d="M3898 2893 c23 -2 61 -2 85 0 23 2 4 4 -43 4 -47 0 -66 -2 -42 -4z"/>
<path d="M2458 2883 c17 -2 47 -2 65 0 17 2 3 4 -33 4 -36 0 -50 -2 -32 -4z"/>
<path d="M4050 2882 c8 -5 26 -13 40 -16 17 -5 20 -4 10 2 -8 5 -26 13 -40 16
-17 5 -20 4 -10 -2z"/>
<path d="M1654 2872 c3 -6 -3 -13 -15 -17 -11 -4 -19 -9 -16 -11 2 -2 21 2 43
10 21 8 34 15 27 15 -6 1 -19 4 -29 8 -11 4 -15 3 -10 -5z"/>
<path d="M3768 2873 c7 -3 16 -2 19 1 4 3 -2 6 -13 5 -11 0 -14 -3 -6 -6z"/>
<path d="M1848 2863 c6 -2 18 -2 25 0 6 3 1 5 -13 5 -14 0 -19 -2 -12 -5z"/>
<path d="M2031 2866 c9 -8 99 -13 99 -5 0 5 -23 9 -52 9 -28 0 -49 -2 -47 -4z"/>
<path d="M1790 2850 c-8 -5 -10 -10 -5 -10 6 0 17 5 25 10 8 5 11 10 5 10 -5
0 -17 -5 -25 -10z"/>
<path d="M2150 2852 c0 -7 57 -32 74 -32 4 0 1 6 -6 14 -7 7 -18 12 -24 9 -7
-2 -15 0 -19 6 -7 13 -25 15 -25 3z"/>
<path d="M3685 2850 c-3 -6 1 -7 9 -4 18 7 21 14 7 14 -6 0 -13 -4 -16 -10z"/>
<path d="M4142 2844 c10 -10 20 -15 24 -12 3 4 -5 12 -18 18 -22 12 -22 12 -6
-6z"/>
<path d="M3900 2840 c25 -8 87 -13 79 -6 -2 2 -26 6 -54 9 -34 4 -42 3 -25 -3z"/>
<path d="M3645 2830 c-3 -6 1 -7 9 -4 18 7 21 14 7 14 -6 0 -13 -4 -16 -10z"/>
<path d="M1570 2820 c-8 -5 -10 -10 -5 -10 6 0 17 5 25 10 8 5 11 10 5 10 -5
0 -17 -5 -25 -10z"/>
<path d="M1720 2820 c-8 -5 -10 -10 -5 -10 6 0 17 5 25 10 8 5 11 10 5 10 -5
0 -17 -5 -25 -10z"/>
<path d="M4030 2815 c24 -8 46 -13 48 -11 5 5 -59 26 -77 25 -9 0 4 -7 29 -14z"/>
<path d="M2240 2816 c0 -2 7 -7 16 -10 8 -3 12 -2 9 4 -6 10 -25 14 -25 6z"/>
<path d="M2298 2808 c-7 -16 7 -46 17 -37 3 4 2 16 -3 29 -7 18 -10 20 -14 8z"/>
<path d="M1650 2789 c-19 -11 -30 -19 -25 -19 6 -1 -1 -10 -14 -20 -13 -11
-19 -20 -14 -20 5 0 20 11 32 24 17 18 32 24 55 21 17 -1 23 0 14 2 -21 5 -24
19 -5 26 6 3 8 5 2 5 -5 0 -26 -9 -45 -19z"/>
<path d="M3739 2790 c-15 -11 -34 -32 -43 -47 -17 -27 -17 -27 10 2 15 17 39
38 53 47 14 10 22 18 16 18 -5 -1 -22 -9 -36 -20z"/>
<path d="M4106 2801 c-3 -4 7 -19 22 -32 l27 -24 -24 27 -23 26 28 5 29 4 -27
2 c-15 0 -29 -3 -32 -8z"/>
<path d="M1480 2784 l-35 -13 41 1 c26 1 41 6 41 15 0 15 -1 15 -47 -3z"/>
<path d="M1830 2785 c-14 -8 -35 -14 -48 -15 -14 0 -21 -4 -17 -11 4 -5 -1
-20 -12 -32 -10 -11 1 -6 25 12 24 19 60 40 80 47 22 8 29 13 17 13 -11 0 -31
-6 -45 -14z"/>
<path d="M2003 2793 c9 -2 23 -2 30 0 6 3 -1 5 -18 5 -16 0 -22 -2 -12 -5z"/>
<path d="M3109 2789 c-1 -8 0 -24 0 -36 2 -13 -5 -23 -16 -26 -14 -4 -13 -5 5
-6 20 -1 22 -6 22 -55 0 -54 0 -55 -32 -59 -18 -2 -4 -4 32 -4 36 0 53 2 38 4
-27 4 -28 7 -30 64 -3 97 -5 119 -11 126 -4 3 -7 0 -8 -8z"/>
<path d="M3570 2790 c-13 -8 -12 -10 3 -10 9 0 17 5 17 10 0 12 -1 12 -20 0z"/>
<path d="M3858 2793 c6 -2 18 -2 25 0 6 3 1 5 -13 5 -14 0 -19 -2 -12 -5z"/>
<path d="M3990 2794 c45 -17 74 -24 64 -14 -5 5 -25 12 -44 15 -19 3 -28 3
-20 -1z"/>
<path d="M1350 2779 c0 -9 -11 -21 -25 -27 -14 -6 -25 -17 -25 -24 0 -10 19
-12 77 -8 l78 4 -70 6 c-69 5 -69 5 -43 20 20 11 25 19 18 30 -8 13 -10 13
-10 -1z"/>
<path d="M3388 2783 c23 -2 61 -2 85 0 23 2 4 4 -43 4 -47 0 -66 -2 -42 -4z"/>
<path d="M1418 2773 c7 -3 16 -2 19 1 4 3 -2 6 -13 5 -11 0 -14 -3 -6 -6z"/>
<path d="M2081 2777 c2 -1 13 -9 24 -17 19 -14 19 -14 6 3 -7 9 -18 17 -24 17
-6 0 -8 -1 -6 -3z"/>
<path d="M3163 2773 c15 -2 37 -2 50 0 12 2 0 4 -28 4 -27 0 -38 -2 -22 -4z"/>
<path d="M3759 2743 c-45 -40 -69 -86 -69 -129 0 -23 -3 -26 -25 -22 -22 5
-25 2 -25 -23 0 -27 -2 -28 -52 -32 l-53 -3 51 -2 c46 -2 54 1 69 24 10 15 22
23 31 20 11 -4 14 4 14 32 0 52 28 101 78 139 24 18 39 33 33 33 -6 0 -30 -17
-52 -37z"/>
<path d="M1854 2754 c-19 -15 -19 -15 1 -6 11 5 27 12 35 15 13 5 13 6 -1 6
-8 1 -24 -6 -35 -15z"/>
<path d="M2018 2763 c7 -3 16 -2 19 1 4 3 -2 6 -13 5 -11 0 -14 -3 -6 -6z"/>
<path d="M2863 2763 c15 -2 37 -2 50 0 12 2 0 4 -28 4 -27 0 -38 -2 -22 -4z"/>
<path d="M4565 2760 c-17 -7 -17 -9 -2 -9 19 -1 22 -14 7 -42 -9 -16 -23 -19
-88 -21 l-77 -2 71 -5 71 -6 -14 -32 c-13 -32 -14 -33 -77 -33 -36 0 -67 -3
-69 -7 -3 -5 29 -6 71 -3 65 4 77 8 80 24 2 10 13 35 24 55 24 41 40 91 30 90
-4 0 -16 -4 -27 -9z"/>
<path d="M2312 2730 c0 -19 2 -27 5 -17 2 9 2 25 0 35 -3 9 -5 1 -5 -18z"/>
<path d="M2648 2753 c23 -2 59 -2 80 0 20 2 1 4 -43 4 -44 0 -61 -2 -37 -4z"/>
<path d="M3480 2750 l-65 -7 59 -1 c56 -2 59 -3 40 -18 -11 -8 -13 -14 -5 -12
8 2 21 14 29 26 8 12 13 21 11 20 -2 -1 -33 -4 -69 -8z"/>
<path d="M4085 2750 c3 -5 8 -10 11 -10 2 0 4 5 4 10 0 6 -5 10 -11 10 -5 0
-7 -4 -4 -10z"/>
<path d="M4518 2753 c7 -3 16 -2 19 1 4 3 -2 6 -13 5 -11 0 -14 -3 -6 -6z"/>
<path d="M2060 2746 c0 -2 7 -7 16 -10 8 -3 12 -2 9 4 -6 10 -25 14 -25 6z"/>
<path d="M2398 2743 c12 -2 32 -2 45 0 12 2 2 4 -23 4 -25 0 -35 -2 -22 -4z"/>
<path d="M4338 2743 c17 -2 47 -2 65 0 17 2 3 4 -33 4 -36 0 -50 -2 -32 -4z"/>
<path d="M4453 2743 c9 -2 25 -2 35 0 9 3 1 5 -18 5 -19 0 -27 -2 -17 -5z"/>
<path d="M3223 2733 c9 -2 25 -2 35 0 9 3 1 5 -18 5 -19 0 -27 -2 -17 -5z"/>
<path d="M1775 2704 l-30 -26 33 22 c17 12 32 23 32 26 0 7 -4 5 -35 -22z"/>
<path d="M2968 2723 c7 -3 16 -2 19 1 4 3 -2 6 -13 5 -11 0 -14 -3 -6 -6z"/>
<path d="M3023 2723 c9 -2 23 -2 30 0 6 3 -1 5 -18 5 -16 0 -22 -2 -12 -5z"/>
<path d="M4173 2705 c8 -16 16 -35 18 -42 2 -7 9 -9 16 -5 8 5 2 18 -18 42
-30 35 -30 35 -16 5z"/>
<path d="M2698 2713 c6 -2 18 -2 25 0 6 3 1 5 -13 5 -14 0 -19 -2 -12 -5z"/>
<path d="M2768 2713 c12 -2 32 -2 45 0 12 2 2 4 -23 4 -25 0 -35 -2 -22 -4z"/>
<path d="M4032 2698 c61 -52 56 -118 -11 -164 -20 -13 -32 -24 -27 -24 18 0
78 53 87 77 14 37 -6 88 -44 114 l-32 21 27 -24z"/>
<path d="M4130 2713 c0 -6 4 -15 10 -18 19 -12 32 -84 20 -119 -10 -32 -67
-93 -105 -114 -11 -6 -14 -12 -7 -12 20 0 112 90 118 117 4 15 12 22 20 19 9
-4 14 2 14 15 0 11 -4 18 -10 14 -5 -3 -14 12 -19 33 -11 39 -40 86 -41 65z"/>
<path d="M2182 2693 c13 -16 38 -67 38 -78 0 -3 -6 -5 -13 -5 -7 0 -18 12 -24
28 l-12 27 7 -30 c4 -16 7 -48 6 -70 l-1 -40 11 38 c12 46 30 43 34 -6 l3 -37
57 2 57 2 -51 3 -51 4 -6 44 c-7 51 -44 135 -60 135 -5 0 -4 -8 5 -17z"/>
<path d="M2498 2703 c7 -3 16 -2 19 1 4 3 -2 6 -13 5 -11 0 -14 -3 -6 -6z"/>
<path d="M1719 2683 c-13 -16 -12 -17 4 -4 16 13 21 21 13 21 -2 0 -10 -8 -17
-17z"/>
<path d="M1863 2683 c-10 -10 -14 -15 -8 -11 6 4 22 12 36 17 15 6 18 10 8 10
-9 1 -25 -7 -36 -16z"/>
<path d="M2322 2670 c0 -14 2 -19 5 -12 2 6 2 18 0 25 -3 6 -5 1 -5 -13z"/>
<path d="M3477 2683 c-4 -3 -7 -11 -7 -17 0 -6 5 -5 12 2 6 6 9 14 7 17 -3 3
-9 2 -12 -2z"/>
<path d="M4263 2673 c15 -2 37 -2 50 0 12 2 0 4 -28 4 -27 0 -38 -2 -22 -4z"/>
<path d="M3787 2663 c-4 -3 -6 -22 -6 -42 l1 -36 8 40 c8 42 8 49 -3 38z"/>
<path d="M1687 2630 c-8 -22 -18 -30 -37 -31 -23 -2 -23 -2 -2 -6 24 -5 29
-18 10 -26 -10 -4 -10 -6 0 -6 6 -1 12 -8 12 -16 0 -13 -22 -15 -160 -13 -162
3 -217 17 -110 29 l55 6 -54 1 c-38 2 -58 7 -66 19 -10 14 -11 10 -6 -23 l6
-39 170 -3 c143 -2 170 0 177 13 11 19 28 19 42 0 8 -12 10 -2 7 42 -4 50 -5
53 -10 24 -6 -37 -27 -53 -37 -28 -3 8 2 31 10 51 8 20 13 36 10 36 -3 0 -11
-13 -17 -30z"/>
<path d="M2487 2639 c12 -12 25 -20 28 -17 3 3 -7 13 -22 23 l-28 17 22 -23z"/>
<path d="M1308 2638 c9 -9 15 -9 24 0 9 9 7 12 -12 12 -19 0 -21 -3 -12 -12z"/>
<path d="M1820 2635 c-7 -9 -11 -17 -9 -20 3 -2 10 5 17 15 14 24 10 26 -8 5z"/>
<path d="M3647 2635 c-4 -8 -2 -17 3 -20 6 -4 10 3 10 14 0 25 -6 27 -13 6z"/>
<path d="M1375 2615 c0 -14 5 -25 11 -25 7 0 9 10 6 25 -2 14 -7 25 -11 25 -3
0 -6 -11 -6 -25z"/>
<path d="M2085 2585 c0 -29 3 -48 7 -42 4 7 8 26 8 42 0 17 -4 35 -8 42 -4 6
-7 -13 -7 -42z"/>
<path d="M2332 2615 c0 -16 4 -41 8 -55 8 -24 8 -24 8 5 0 17 -4 41 -8 55 -8
24 -8 24 -8 -5z"/>
<path d="M3445 2631 c-6 -6 -30 -11 -55 -14 -42 -3 -41 -4 13 -5 45 -2 57 1
57 13 0 17 -3 18 -15 6z"/>
<path d="M3598 2623 c6 -2 18 -2 25 0 6 3 1 5 -13 5 -14 0 -19 -2 -12 -5z"/>
<path d="M3478 2613 c7 -3 16 -2 19 1 4 3 -2 6 -13 5 -11 0 -14 -3 -6 -6z"/>
<path d="M1558 2593 c6 -2 18 -2 25 0 6 3 1 5 -13 5 -14 0 -19 -2 -12 -5z"/>
<path d="M2468 2593 c7 -3 16 -2 19 1 4 3 -2 6 -13 5 -11 0 -14 -3 -6 -6z"/>
<path d="M2543 2593 c15 -2 39 -2 55 0 15 2 2 4 -28 4 -30 0 -43 -2 -27 -4z"/>
<path d="M2697 2593 c18 -2 50 -2 70 0 21 2 7 4 -32 4 -38 0 -55 -2 -38 -4z"/>
<path d="M4223 2583 c9 -2 25 -2 35 0 9 3 1 5 -18 5 -19 0 -27 -2 -17 -5z"/>
<path d="M1518 2563 c12 -2 30 -2 40 0 9 3 -1 5 -23 4 -22 0 -30 -2 -17 -4z"/>
<path d="M3805 2550 c10 -11 20 -20 23 -20 3 0 -3 9 -13 20 -10 11 -20 20 -23
20 -3 0 3 -9 13 -20z"/>
<path d="M3700 2551 c0 -6 4 -13 10 -16 6 -3 7 1 4 9 -7 18 -14 21 -14 7z"/>
<path d="M1810 2541 c0 -5 5 -13 10 -16 6 -3 10 -2 10 4 0 5 -4 13 -10 16 -5
3 -10 2 -10 -4z"/>
<path d="M3468 2533 c12 -2 32 -2 45 0 12 2 2 4 -23 4 -25 0 -35 -2 -22 -4z"/>
<path d="M2423 2523 c9 -2 23 -2 30 0 6 3 -1 5 -18 5 -16 0 -22 -2 -12 -5z"/>
<path d="M2548 2523 c12 -2 30 -2 40 0 9 3 -1 5 -23 4 -22 0 -30 -2 -17 -4z"/>
<path d="M3847 2519 c7 -7 15 -10 18 -7 3 3 -2 9 -12 12 -14 6 -15 5 -6 -5z"/>
<path d="M2165 2509 c-4 -6 -5 -12 -2 -15 2 -3 7 2 10 11 7 17 1 20 -8 4z"/>
<path d="M3744 2495 c13 -14 27 -25 31 -25 5 0 -2 11 -15 25 -13 14 -27 25
-31 25 -5 0 2 -11 15 -25z"/>
<path d="M3893 2503 c9 -2 23 -2 30 0 6 3 -1 5 -18 5 -16 0 -22 -2 -12 -5z"/>
<path d="M3958 2503 c7 -3 16 -2 19 1 4 3 -2 6 -13 5 -11 0 -14 -3 -6 -6z"/>
<path d="M1740 2496 c0 -2 7 -9 15 -16 13 -11 14 -10 9 4 -5 14 -24 23 -24 12z"/>
<path d="M1874 2486 c11 -9 27 -16 35 -15 14 0 14 1 1 6 -8 3 -24 10 -35 15
-20 9 -20 9 -1 -6z"/>
<path d="M2005 2485 c-25 -12 -26 -14 -5 -9 14 4 29 10 35 15 12 12 5 11 -30
-6z"/>
<path d="M3820 2450 c8 -5 20 -10 25 -10 6 0 3 5 -5 10 -8 5 -19 10 -25 10 -5
0 -3 -5 5 -10z"/>
<path d="M4008 2443 c7 -3 16 -2 19 1 4 3 -2 6 -13 5 -11 0 -14 -3 -6 -6z"/>
<path d="M3888 2433 c7 -3 16 -2 19 1 4 3 -2 6 -13 5 -11 0 -14 -3 -6 -6z"/>
<path d="M3928 2433 c7 -3 16 -2 19 1 4 3 -2 6 -13 5 -11 0 -14 -3 -6 -6z"/>
<path d="M1868 2413 c6 -2 18 -2 25 0 6 3 1 5 -13 5 -14 0 -19 -2 -12 -5z"/>
<path d="M2008 2413 c7 -3 16 -2 19 1 4 3 -2 6 -13 5 -11 0 -14 -3 -6 -6z"/>
<path d="M1928 2403 c12 -2 30 -2 40 0 9 3 -1 5 -23 4 -22 0 -30 -2 -17 -4z"/>
<path d="M4398 2383 c6 -2 18 -2 25 0 6 3 1 5 -13 5 -14 0 -19 -2 -12 -5z"/>
<path d="M4490 2373 c8 -2 22 -7 30 -10 8 -3 24 -5 36 -4 20 2 21 1 19 -396
-1 -219 0 -286 2 -149 2 137 7 254 12 260 17 23 20 45 5 39 -11 -4 -14 5 -14
42 0 39 3 46 16 41 11 -4 14 -1 10 12 -2 9 -7 42 -11 74 -5 46 -3 58 10 66 13
7 3 12 -41 20 -59 12 -104 15 -74 5z"/>
<path d="M4373 2330 c0 -25 2 -35 4 -22 2 12 2 32 0 45 -2 12 -4 2 -4 -23z"/>
<path d="M1115 2313 c17 -3 38 -13 48 -24 23 -24 31 -24 18 0 -12 22 -33 32
-69 30 -26 -2 -26 -2 3 -6z"/>
<path d="M1003 2303 c9 -2 25 -2 35 0 9 3 1 5 -18 5 -19 0 -27 -2 -17 -5z"/>
<path d="M4600 2302 c0 -4 9 -8 20 -9 11 -1 18 2 15 8 -7 11 -35 12 -35 1z"/>
<path d="M948 2293 c6 -2 18 -2 25 0 6 3 1 5 -13 5 -14 0 -19 -2 -12 -5z"/>
<path d="M903 2183 c4 -58 8 -293 9 -522 1 -229 3 -397 5 -373 4 42 4 42 44
42 l39 0 0 -50 c0 -59 -18 -73 -53 -44 -20 17 -20 17 2 -8 25 -29 47 -28 56 3
4 10 10 19 15 19 4 0 10 9 13 20 6 24 29 26 47 5 10 -12 10 -18 -1 -32 -12
-17 -12 -17 4 -2 21 18 14 46 -15 55 -12 3 -27 -1 -39 -12 -19 -17 -19 -15
-18 107 1 68 0 129 -1 134 -1 6 -2 83 -1 173 l1 162 45 0 46 0 -3 -205 c-2
-113 0 -205 3 -205 3 0 7 -35 8 -77 2 -43 6 -96 10 -118 3 -22 5 49 3 158 -3
132 -1 202 6 209 16 16 19 -9 31 -252 6 -118 14 -228 19 -245 8 -28 12 -30 58
-31 l49 -1 -46 4 c-45 4 -47 5 -53 41 -14 78 -20 255 -8 248 7 -4 15 6 21 26
l11 33 -3 -38 c-2 -30 2 -42 27 -65 16 -15 25 -20 20 -12 -5 8 -8 130 -7 270
2 140 -1 275 -6 300 -8 41 -9 42 -10 12 -1 -42 -21 -32 -21 11 0 24 -3 28 -12
19 -26 -26 -30 -9 -25 116 4 102 4 111 -3 47 -5 -44 -11 -152 -15 -240 -7
-150 -16 -200 -31 -162 -3 9 -4 90 -2 181 1 92 0 166 -4 166 -7 0 -14 -144 -9
-172 0 -5 -23 -7 -51 -6 l-53 1 45 7 45 7 -42 1 c-24 1 -43 3 -44 5 0 1 -3 45
-5 97 -4 66 -9 99 -19 108 -10 8 -11 8 -5 0 6 -7 10 -34 10 -60 l0 -48 -35 0
c-33 0 -35 2 -35 36 0 25 7 42 23 55 22 20 22 20 0 10 -21 -10 -22 -8 -28 64
-4 41 -5 88 -3 105 3 16 0 30 -5 30 -6 0 -8 -39 -4 -107z m34 -320 c-2 -21 -4
-4 -4 37 0 41 2 58 4 38 2 -21 2 -55 0 -75z m240 25 c-3 -7 -5 -2 -5 12 0 14
2 19 5 13 2 -7 2 -19 0 -25z m32 -82 l-2 -51 -7 40 -6 40 -5 -35 c-5 -42 -23
-46 -27 -6 -6 48 5 75 28 69 17 -5 20 -13 19 -57z m30 4 c1 -34 -1 -50 -8 -45
-6 3 -11 29 -11 56 0 65 16 56 19 -11z m-302 -112 c-2 -18 -4 -6 -4 27 0 33 2
48 4 33 2 -15 2 -42 0 -60z m253 25 c0 -25 -1 -26 -16 -11 -9 9 -13 21 -10 27
13 20 26 11 26 -16z m30 -67 c0 -47 -4 -88 -10 -91 -6 -4 -10 27 -10 84 0 54
4 91 10 91 6 0 10 -35 10 -84z m17 -49 c-2 -23 -3 -1 -3 48 0 50 1 68 3 42 2
-26 2 -67 0 -90z m-240 71 c-3 -7 -5 -2 -5 12 0 14 2 19 5 13 2 -7 2 -19 0
-25z m188 -55 c5 -44 4 -63 -4 -63 -7 0 -13 6 -15 13 -2 6 -9 31 -16 54 -11
35 -11 45 0 58 19 23 27 8 35 -62z m-248 -95 c-3 -7 -5 -2 -5 12 0 14 2 19 5
13 2 -7 2 -19 0 -25z m253 -29 c0 -66 -24 -62 -28 4 -2 37 0 47 12 47 12 0 16
-12 16 -51z m17 -26 c-2 -16 -4 -3 -4 27 0 30 2 43 4 28 2 -16 2 -40 0 -55z
m30 0 c-2 -16 -4 -3 -4 27 0 30 2 43 4 28 2 -16 2 -40 0 -55z m-54 -48 c4 -8
2 -17 -3 -20 -6 -4 -10 3 -10 14 0 25 6 27 13 6z m44 -27 c-3 -7 -5 -2 -5 12
0 14 2 19 5 13 2 -7 2 -19 0 -25z"/>
<path d="M811 1804 c0 -262 3 -473 7 -470 3 4 5 216 4 471 -3 457 -2 465 17
465 17 0 21 -8 24 -47 l3 -48 2 53 c2 52 2 52 -28 52 l-30 0 1 -476z"/>
<path d="M1121 2258 c0 -16 2 -18 6 -8 3 8 11 18 17 22 7 5 4 8 -6 8 -12 0
-18 -7 -17 -22z"/>
<path d="M4643 2240 c0 -25 2 -35 4 -22 2 12 2 32 0 45 -2 12 -4 2 -4 -23z"/>
<path d="M4371 2244 c0 -11 3 -14 6 -6 3 7 2 16 -1 19 -3 4 -6 -2 -5 -13z"/>
<path d="M1180 2225 c0 -18 5 -20 43 -16 l42 6 -35 3 c-19 2 -38 9 -42 15 -5
8 -8 4 -8 -8z"/>
<path d="M4524 2010 c0 -129 2 -182 3 -117 2 64 2 170 0 235 -1 64 -3 11 -3
-118z"/>
<path d="M1026 2222 c-4 -7 -9 -82 -7 -109 2 -20 36 -15 62 8 l24 21 -27 -16
c-33 -20 -48 -20 -48 -2 0 16 60 28 74 15 6 -5 10 -25 9 -44 -1 -19 3 -33 7
-30 12 7 10 165 -2 165 -4 0 -11 -14 -15 -30 -6 -31 -28 -50 -58 -50 -12 0
-16 8 -13 33 3 29 6 32 36 32 17 0 32 3 32 7 0 10 -67 10 -74 0z"/>
<path d="M1299 2223 l33 -4 -5 -47 c-4 -33 -3 -39 3 -22 4 14 8 37 9 53 1 25
-2 27 -36 25 l-38 -1 34 -4z"/>
<path d="M4361 2163 c0 -4 4 -17 9 -28 8 -19 9 -19 9 2 1 12 -3 25 -9 28 -5 3
-10 3 -9 -2z"/>
<path d="M872 2120 c0 -19 2 -27 5 -17 2 9 2 25 0 35 -3 9 -5 1 -5 -18z"/>
<path d="M1300 2083 c-23 -58 -23 -61 0 -20 12 21 20 43 18 48 -2 6 -10 -7
-18 -28z"/>
<path d="M874 1940 c0 -80 2 -112 3 -72 2 39 2 105 0 145 -1 39 -3 7 -3 -73z"/>
<path d="M1948 2073 c23 -2 61 -2 85 0 23 2 4 4 -43 4 -47 0 -66 -2 -42 -4z"/>
<path d="M2172 2073 c14 -4 12 -13 -19 -64 -19 -33 -33 -62 -31 -64 1 -1 22
28 45 66 l42 69 -27 -1 c-16 -1 -20 -3 -10 -6z"/>
<path d="M2255 2060 c3 -5 -1 -23 -10 -40 -8 -16 -13 -30 -11 -30 3 0 12 14
21 30 11 22 23 30 42 30 33 0 27 5 -15 13 -20 4 -31 3 -27 -3z"/>
<path d="M1764 2038 c-37 -28 -54 -44 -34 -32 38 21 82 54 73 54 -6 0 -23 -10
-39 -22z"/>
<path d="M2355 2041 c11 -4 36 -11 55 -15 24 -4 29 -3 15 3 -11 4 -36 11 -55
15 -24 4 -29 3 -15 -3z"/>
<path d="M4368 2005 c2 -19 6 -35 8 -35 2 0 4 16 4 35 0 19 -4 35 -8 35 -4 0
-6 -16 -4 -35z"/>
<path d="M2058 2023 c7 -3 16 -2 19 1 4 3 -2 6 -13 5 -11 0 -14 -3 -6 -6z"/>
<path d="M2095 2021 c3 -6 -3 -14 -12 -20 -14 -8 -15 -10 -3 -11 8 0 21 9 28
20 10 17 10 20 -4 20 -8 0 -13 -4 -9 -9z"/>
<path d="M3820 2020 l-25 -8 26 -1 c21 -1 31 -9 43 -38 16 -36 16 -27 0 25
l-7 23 152 -3 c83 -2 151 0 151 5 0 9 -308 7 -340 -3z"/>
<path d="M1253 1998 c-28 -32 -36 -48 -24 -48 6 0 11 5 11 12 0 6 10 22 22 35
12 13 19 23 16 23 -2 0 -14 -10 -25 -22z"/>
<path d="M1988 2013 c7 -3 16 -2 19 1 4 3 -2 6 -13 5 -11 0 -14 -3 -6 -6z"/>
<path d="M2468 2013 c7 -3 16 -2 19 1 4 3 -2 6 -13 5 -11 0 -14 -3 -6 -6z"/>
<path d="M1905 2000 c-13 -5 -14 -9 -5 -9 8 0 24 4 35 9 13 5 14 9 5 9 -8 0
-24 -4 -35 -9z"/>
<path d="M3758 2003 c6 -2 18 -2 25 0 6 3 1 5 -13 5 -14 0 -19 -2 -12 -5z"/>
<path d="M2580 1994 c8 -3 22 -8 30 -11 8 -4 21 -5 28 -4 6 1 12 -4 12 -11 0
-9 3 -10 8 -2 4 6 14 14 22 17 8 3 1 6 -16 6 -17 1 -47 3 -65 6 -19 3 -27 3
-19 -1z"/>
<path d="M3693 1993 c9 -2 25 -2 35 0 9 3 1 5 -18 5 -19 0 -27 -2 -17 -5z"/>
<path d="M1998 1983 c6 -2 18 -2 25 0 6 3 1 5 -13 5 -14 0 -19 -2 -12 -5z"/>
<path d="M3592 1935 l1 -50 7 45 c3 26 9 39 12 30 11 -26 28 -113 30 -152 1
-21 6 -38 10 -38 8 0 1 76 -13 130 -5 19 -9 42 -8 50 1 19 16 -28 34 -105 7
-33 14 -49 14 -35 0 14 -8 57 -18 97 -13 52 -16 73 -7 77 6 3 -6 4 -26 3 l-38
-1 2 -51z"/>
<path d="M3809 1984 c25 -4 30 -12 46 -67 9 -34 21 -75 26 -91 17 -55 4 -225
-23 -301 -25 -69 -26 -70 -59 -68 l-34 1 33 -11 c27 -8 36 -8 43 4 19 29 52
154 60 228 l8 76 -4 -95 c-2 -65 -10 -114 -25 -155 -29 -79 -36 -87 -74 -80
-24 4 -27 3 -11 -4 50 -23 59 -15 90 72 32 92 43 203 29 314 -6 57 -9 63 -15
38 -4 -20 -7 -24 -8 -10 -1 11 -12 49 -24 85 -21 61 -24 65 -54 68 -30 2 -30
1 -4 -4z m98 -216 c-3 -8 -6 -5 -6 6 -1 11 2 17 5 13 3 -3 4 -12 1 -19z"/>
<path d="M1735 1945 c-110 -41 -125 -43 -99 -12 10 12 4 9 -14 -7 -17 -17 -32
-37 -32 -45 0 -12 2 -13 8 -4 4 7 55 24 112 39 58 14 107 28 110 31 3 3 -6 3
-18 0 -32 -8 -18 5 21 20 18 6 25 12 17 12 -8 0 -55 -16 -105 -34z"/>
<path d="M1943 1973 c9 -2 23 -2 30 0 6 3 -1 5 -18 5 -16 0 -22 -2 -12 -5z"/>
<path d="M2768 1973 c17 -2 47 -2 65 0 17 2 3 4 -33 4 -36 0 -50 -2 -32 -4z"/>
<path d="M3483 1973 c15 -2 37 -2 50 0 12 2 0 4 -28 4 -27 0 -38 -2 -22 -4z"/>
<path d="M1888 1963 c7 -3 16 -2 19 1 4 3 -2 6 -13 5 -11 0 -14 -3 -6 -6z"/>
<path d="M3078 1963 c50 -2 134 -2 185 0 50 1 9 3 -93 3 -102 0 -143 -2 -92
-3z"/>
<path d="M3686 1961 c-4 -5 3 -7 14 -4 23 6 26 13 6 13 -8 0 -17 -4 -20 -9z"/>
<path d="M1838 1953 c7 -3 16 -2 19 1 4 3 -2 6 -13 5 -11 0 -14 -3 -6 -6z"/>
<path d="M2191 1899 c-12 -35 -21 -70 -20 -78 0 -9 11 17 25 58 13 40 23 76
20 78 -2 2 -13 -24 -25 -58z"/>
<path d="M4070 1949 c0 -13 11 -18 45 -21 27 -2 45 1 45 7 0 7 -15 9 -36 7
-24 -3 -39 0 -45 9 -7 11 -9 11 -9 -2z"/>
<path d="M2641 1924 c0 -11 3 -14 6 -6 3 7 2 16 -1 19 -3 4 -6 -2 -5 -13z"/>
<path d="M2096 1879 c-9 -29 -16 -57 -15 -63 0 -6 9 16 20 49 10 32 16 61 14
63 -2 2 -11 -20 -19 -49z"/>
<path d="M3881 1925 c1 -19 18 -51 18 -35 0 8 -4 22 -9 30 -5 8 -9 11 -9 5z"/>
<path d="M2611 1904 c0 -11 3 -14 6 -6 3 7 2 16 -1 19 -3 4 -6 -2 -5 -13z"/>
<path d="M3686 1890 c3 -19 9 -57 14 -85 9 -48 9 -48 4 13 -3 35 -9 73 -14 85
-8 17 -9 14 -4 -13z"/>
<path d="M2633 1865 c0 -22 2 -30 4 -17 2 12 2 30 0 40 -3 9 -5 -1 -4 -23z"/>
<path d="M4361 1874 c0 -11 3 -14 6 -6 3 7 2 16 -1 19 -3 4 -6 -2 -5 -13z"/>
<path d="M2603 1845 c0 -22 2 -30 4 -17 2 12 2 30 0 40 -3 9 -5 -1 -4 -23z"/>
<path d="M1584 1770 c0 -52 1 -74 3 -47 2 26 2 68 0 95 -2 26 -3 4 -3 -48z"/>
<path d="M4374 1725 c0 -60 1 -84 3 -52 2 32 2 81 0 110 -2 29 -3 3 -3 -58z"/>
<path d="M2623 1775 c0 -27 2 -38 4 -22 2 15 2 37 0 50 -2 12 -4 0 -4 -28z"/>
<path d="M3584 1695 c0 -71 1 -99 3 -62 2 37 2 96 0 130 -2 34 -3 4 -3 -68z"/>
<path d="M881 1764 c0 -11 3 -14 6 -6 3 7 2 16 -1 19 -3 4 -6 -2 -5 -13z"/>
<path d="M4681 1764 c0 -11 3 -14 6 -6 3 7 2 16 -1 19 -3 4 -6 -2 -5 -13z"/>
<path d="M3654 1660 c0 -58 1 -81 3 -52 2 28 2 76 0 105 -2 28 -3 5 -3 -53z"/>
<path d="M3684 1665 c0 -55 1 -76 3 -47 2 29 2 74 0 100 -2 26 -3 2 -3 -53z"/>
<path d="M2163 1690 c0 -36 2 -50 4 -32 2 17 2 47 0 65 -2 17 -4 3 -4 -33z"/>
<path d="M3708 1669 c-4 -47 -12 -106 -19 -132 -15 -63 -8 -77 38 -75 l38 1
-39 4 c-37 4 -38 5 -32 36 17 86 27 169 24 209 -2 31 -5 19 -10 -43z"/>
<path d="M4514 1525 c0 -126 2 -177 3 -112 2 65 2 168 0 230 -1 62 -3 9 -3
-118z"/>
<path d="M2553 1695 c0 -27 2 -38 4 -22 2 15 2 37 0 50 -2 12 -4 0 -4 -28z"/>
<path d="M879 1723 c-3 -43 1 -466 5 -471 3 -3 6 103 6 236 0 133 -2 242 -5
242 -3 0 -5 -3 -6 -7z"/>
<path d="M4682 1505 c-1 -137 -6 -195 -14 -204 -11 -11 -10 -13 2 -9 11 3 16
23 18 71 2 39 7 67 14 67 7 0 7 4 0 13 -7 7 -13 66 -15 133 -2 88 -3 70 -5
-71z"/>
<path d="M1582 1650 c0 -14 2 -19 5 -12 2 6 2 18 0 25 -3 6 -5 1 -5 -13z"/>
<path d="M2071 1644 c0 -11 3 -14 6 -6 3 7 2 16 -1 19 -3 4 -6 -2 -5 -13z"/>
<path d="M4152 1620 c0 -14 2 -19 5 -12 2 6 2 18 0 25 -3 6 -5 1 -5 -13z"/>
<path d="M2621 1614 c0 -11 3 -14 6 -6 3 7 2 16 -1 19 -3 4 -6 -2 -5 -13z"/>
<path d="M1583 1575 c0 -22 2 -30 4 -17 2 12 2 30 0 40 -3 9 -5 -1 -4 -23z"/>
<path d="M2082 1590 c0 -14 2 -19 5 -12 2 6 2 18 0 25 -3 6 -5 1 -5 -13z"/>
<path d="M2602 1580 c0 -14 2 -19 5 -12 2 6 2 18 0 25 -3 6 -5 1 -5 -13z"/>
<path d="M4150 1555 c0 -21 -5 -35 -12 -35 -10 0 -9 -3 1 -9 9 -6 12 -23 10
-55 -2 -25 -1 -46 3 -46 5 0 8 41 8 90 0 50 -2 90 -5 90 -3 0 -5 -16 -5 -35z"/>
<path d="M2171 1564 c0 -11 3 -14 6 -6 3 7 2 16 -1 19 -3 4 -6 -2 -5 -13z"/>
<path d="M2095 1535 c7 -34 61 -155 70 -155 3 0 -4 19 -16 42 -12 24 -30 65
-41 93 -10 27 -16 37 -13 20z"/>
<path d="M2632 1535 c0 -16 2 -22 5 -12 2 9 2 23 0 30 -3 6 -5 -1 -5 -18z"/>
<path d="M3582 1530 c0 -19 2 -27 5 -17 2 9 2 25 0 35 -3 9 -5 1 -5 -18z"/>
<path d="M3656 1504 c-11 -33 -21 -53 -23 -47 -3 7 1 29 7 49 7 19 10 37 7 40
-2 3 -11 -16 -18 -41 -14 -46 -23 -55 -32 -32 -4 7 -6 6 -6 -5 -1 -9 -9 -19
-18 -21 -10 -3 14 -5 52 -4 39 0 60 2 48 4 -21 4 -21 5 -6 48 8 25 13 50 11
56 -2 6 -12 -15 -22 -47z"/>
<path d="M2181 1524 c0 -11 3 -14 6 -6 3 7 2 16 -1 19 -3 4 -6 -2 -5 -13z"/>
<path d="M2612 1515 c0 -16 2 -22 5 -12 2 9 2 23 0 30 -3 6 -5 -1 -5 -18z"/>
<path d="M1592 1516 c2 -11 10 -20 18 -22 8 -2 44 -14 80 -27 54 -20 163 -47
122 -30 -6 2 -10 9 -6 14 3 5 -3 9 -14 9 -32 0 -185 49 -194 63 -6 8 -8 6 -6
-7z"/>
<path d="M4058 1460 c-1 -28 0 -50 5 -50 4 0 7 23 7 50 0 65 -7 65 -12 0z"/>
<path d="M2646 1465 c6 -41 11 -52 19 -44 2 3 -3 23 -11 44 l-15 40 7 -40z"/>
<path d="M1635 1450 c10 -11 20 -20 23 -20 3 0 -3 9 -13 20 -10 11 -20 20 -23
20 -3 0 3 -9 13 -20z"/>
<path d="M2201 1465 c0 -5 8 -26 19 -45 11 -19 19 -30 19 -25 0 6 -8 26 -19
45 -11 19 -19 31 -19 25z"/>
<path d="M1043 1453 c9 -2 23 -2 30 0 6 3 -1 5 -18 5 -16 0 -22 -2 -12 -5z"/>
<path d="M3168 1453 c46 -2 118 -2 160 0 42 1 5 3 -83 3 -88 0 -123 -2 -77 -3z"/>
<path d="M4574 1315 c0 -82 2 -115 3 -72 2 43 2 110 0 150 -1 40 -3 5 -3 -78z"/>
<path d="M2818 1443 c7 -3 16 -2 19 1 4 3 -2 6 -13 5 -11 0 -14 -3 -6 -6z"/>
<path d="M4373 1405 c0 -27 2 -38 4 -22 2 15 2 37 0 50 -2 12 -4 0 -4 -28z"/>
<path d="M1893 1433 c9 -2 23 -2 30 0 6 3 -1 5 -18 5 -16 0 -22 -2 -12 -5z"/>
<path d="M3733 1433 c9 -2 23 -2 30 0 6 3 -1 5 -18 5 -16 0 -22 -2 -12 -5z"/>
<path d="M1670 1426 c0 -3 9 -10 20 -16 11 -6 20 -8 20 -6 0 3 -9 10 -20 16
-11 6 -20 8 -20 6z"/>
<path d="M1830 1426 c0 -7 98 -34 145 -40 23 -3 10 2 -30 14 -101 28 -115 31
-115 26z"/>
<path d="M1953 1423 c9 -2 23 -2 30 0 6 3 -1 5 -18 5 -16 0 -22 -2 -12 -5z"/>
<path d="M2615 1420 c-3 -6 1 -7 9 -4 18 7 21 14 7 14 -6 0 -13 -4 -16 -10z"/>
<path d="M4720 1425 c0 -5 5 -17 10 -25 5 -8 10 -10 10 -5 0 6 -5 17 -10 25
-5 8 -10 11 -10 5z"/>
<path d="M2023 1413 c9 -2 25 -2 35 0 9 3 1 5 -18 5 -19 0 -27 -2 -17 -5z"/>
<path d="M2090 1398 c0 -11 -10 -18 -32 -21 -29 -3 -27 -4 10 -5 43 -2 49 2
32 28 -8 13 -10 13 -10 -2z"/>
<path d="M2515 1395 c-40 -14 -40 -14 -5 -8 19 3 42 9 50 14 22 12 1 9 -45 -6z"/>
<path d="M2246 1363 c4 -15 1 -23 -13 -26 -15 -4 -14 -5 4 -6 29 -1 36 12 18
35 -13 18 -14 18 -9 -3z"/>
<path d="M1760 1367 c0 -3 15 -15 34 -26 30 -19 47 -21 182 -19 l149 2 -155 6
c-129 4 -160 8 -182 24 -16 10 -28 16 -28 13z"/>
<path d="M2378 1363 c7 -3 16 -2 19 1 4 3 -2 6 -13 5 -11 0 -14 -3 -6 -6z"/>
<path d="M2338 1353 c7 -3 16 -2 19 1 4 3 -2 6 -13 5 -11 0 -14 -3 -6 -6z"/>
<path d="M4371 1314 c0 -11 3 -14 6 -6 3 7 2 16 -1 19 -3 4 -6 -2 -5 -13z"/>
<path d="M815 1175 l0 -150 34 -3 c19 -2 31 1 27 6 -3 5 -17 7 -30 5 l-25 -5
-4 148 -3 149 1 -150z"/>
<path d="M1274 1300 c13 -41 56 -133 56 -120 0 8 -14 42 -30 75 -17 33 -28 53
-26 45z"/>
<path d="M4374 1160 c0 -74 1 -105 3 -67 2 37 2 97 0 135 -2 37 -3 6 -3 -68z"/>
<path d="M4631 1250 c-1 -30 15 -50 40 -50 14 0 19 -10 21 -47 l3 -48 5 54 c4
48 3 54 -16 62 -12 4 -24 14 -27 21 -3 8 -6 5 -7 -7 -2 -14 -5 -11 -10 10 -7
28 -8 29 -9 5z"/>
<path d="M4690 1257 c14 -8 24 -19 22 -26 -3 -17 20 -9 26 9 3 7 0 10 -6 7 -5
-4 -15 0 -22 8 -7 8 -20 15 -29 15 -10 0 -7 -5 9 -13z"/>
<path d="M870 1211 c0 -17 5 -33 10 -36 6 -4 10 8 10 29 0 20 -4 36 -10 36 -5
0 -10 -13 -10 -29z"/>
<path d="M914 1135 c0 -60 1 -84 3 -52 2 32 2 81 0 110 -2 29 -3 3 -3 -58z"/>
<path d="M1031 1207 c-6 -6 -10 -31 -10 -56 2 -31 3 -37 6 -18 6 36 26 44 59
22 35 -22 27 -48 -16 -56 l-35 -6 32 -2 c17 0 35 5 40 12 5 8 11 -2 18 -27 9
-30 18 -42 38 -47 16 -4 27 -3 30 5 3 8 -4 11 -23 8 -25 -3 -28 -1 -33 35 -4
21 -7 61 -8 88 -1 37 -3 44 -8 25 -5 -17 -9 -21 -15 -12 -14 23 -62 42 -75 29z
m69 -36 c0 -5 -15 -4 -32 2 -42 15 -41 14 -33 26 7 12 65 -13 65 -28z"/>
<path d="M4521 1148 c-1 -37 3 -69 7 -72 5 -3 6 23 4 57 -5 87 -10 94 -11 15z"/>
<path d="M4621 1177 c2 -1 13 -9 24 -17 19 -14 19 -14 6 3 -7 9 -18 17 -24 17
-6 0 -8 -1 -6 -3z"/>
<path d="M873 1105 c0 -33 2 -45 4 -27 2 18 2 45 0 60 -2 15 -4 0 -4 -33z"/>
<path d="M1328 1125 c-2 -19 0 -35 4 -35 4 0 8 16 8 35 0 19 -2 35 -4 35 -2 0
-6 -16 -8 -35z"/>
<path d="M4581 1098 c0 -33 2 -38 9 -23 12 28 12 65 0 65 -5 0 -10 -19 -9 -42z"/>
<path d="M4635 1079 c-4 -6 -13 -8 -21 -5 -8 3 -14 1 -14 -4 0 -15 26 -12 40
5 7 8 10 15 7 15 -3 0 -9 -5 -12 -11z"/>
<path d="M4532 1040 c0 -14 2 -19 5 -12 2 6 2 18 0 25 -3 6 -5 1 -5 -13z"/>
<path d="M4591 1026 c-1 -25 -4 -28 -26 -24 -14 3 -25 1 -25 -3 0 -11 36 -10
70 1 15 5 19 8 8 9 -9 1 -19 11 -21 24 -4 18 -5 17 -6 -7z"/>
<path d="M4654 1028 l-19 -23 23 19 c21 18 27 26 19 26 -2 0 -12 -10 -23 -22z"/>
<path d="M898 1013 c7 -3 16 -2 19 1 4 3 -2 6 -13 5 -11 0 -14 -3 -6 -6z"/>
<path d="M3903 1013 c9 -2 25 -2 35 0 9 3 1 5 -18 5 -19 0 -27 -2 -17 -5z"/>
<path d="M943 1003 c9 -2 23 -2 30 0 6 3 -1 5 -18 5 -16 0 -22 -2 -12 -5z"/>
<path d="M3848 1003 c7 -3 16 -2 19 1 4 3 -2 6 -13 5 -11 0 -14 -3 -6 -6z"/>
<path d="M3985 1000 c27 -12 43 -12 25 0 -8 5 -22 9 -30 9 -10 0 -8 -3 5 -9z"/>
<path d="M1033 993 c15 -2 39 -2 55 0 15 2 2 4 -28 4 -30 0 -43 -2 -27 -4z"/>
<path d="M4070 962 c34 -29 49 -34 35 -13 -3 6 -21 18 -38 27 l-32 16 35 -30z"/>
<path d="M4473 983 c9 -2 23 -2 30 0 6 3 -1 5 -18 5 -16 0 -22 -2 -12 -5z"/>
<path d="M1844 950 c-12 -5 -25 -14 -29 -20 -6 -10 50 13 64 26 7 7 -13 3 -35
-6z"/>
<path d="M2015 940 c27 -12 43 -12 25 0 -8 5 -22 9 -30 9 -10 0 -8 -3 5 -9z"/>
<path d="M3710 925 c-13 -14 -22 -27 -19 -29 2 -2 14 10 27 25 29 36 24 38 -8
4z"/>
<path d="M3860 940 c-8 -5 -10 -10 -5 -10 6 0 17 5 25 10 8 5 11 10 5 10 -5 0
-17 -5 -25 -10z"/>
<path d="M3908 943 c7 -3 16 -2 19 1 4 3 -2 6 -13 5 -11 0 -14 -3 -6 -6z"/>
<path d="M3948 933 c7 -3 16 -2 19 1 4 3 -2 6 -13 5 -11 0 -14 -3 -6 -6z"/>
<path d="M3990 920 c8 -5 20 -10 25 -10 6 0 3 5 -5 10 -8 5 -19 10 -25 10 -5
0 -3 -5 5 -10z"/>
<path d="M4120 906 c0 -2 7 -19 15 -39 13 -30 13 -42 1 -81 -8 -25 -10 -43 -5
-40 5 3 14 26 20 50 8 31 14 41 20 32 17 -28 -12 -95 -65 -150 l-37 -38 33 1
c23 0 28 3 15 7 -15 6 -12 13 23 56 22 26 40 54 40 62 0 11 33 14 180 14 99 0
180 4 180 9 0 5 -7 14 -16 22 -8 7 -13 21 -10 31 6 24 1 25 -109 31 -51 3 -79
1 -65 -3 14 -4 55 -8 93 -9 56 -1 67 -4 67 -18 0 -9 7 -25 17 -35 16 -17 10
-18 -154 -18 l-170 0 -7 30 c-3 17 -6 33 -6 38 0 4 28 10 62 13 l63 6 -72 1
c-49 1 -73 -2 -76 -10 -3 -8 -9 -1 -16 15 -9 23 -21 36 -21 23z"/>
<path d="M4020 896 c0 -2 8 -10 18 -17 15 -13 16 -12 3 4 -13 16 -21 21 -21
13z"/>
<path d="M1913 883 c9 -2 25 -2 35 0 9 3 1 5 -18 5 -19 0 -27 -2 -17 -5z"/>
<path d="M3418 883 c23 -2 61 -2 85 0 23 2 4 4 -43 4 -47 0 -66 -2 -42 -4z"/>
<path d="M3178 873 c23 -2 61 -2 85 0 23 2 4 4 -43 4 -47 0 -66 -2 -42 -4z"/>
<path d="M3767 873 c-4 -3 -6 -27 -6 -52 l2 -46 7 50 c8 53 7 59 -3 48z"/>
<path d="M1712 832 c-9 -23 -24 -42 -32 -42 -10 0 -11 -3 -4 -8 7 -4 17 -26
23 -49 6 -23 16 -45 22 -49 8 -4 8 0 0 14 -16 31 -13 114 5 140 9 13 13 26 10
29 -3 4 -14 -12 -24 -35z"/>
<path d="M1824 848 l-19 -23 23 19 c21 18 27 26 19 26 -2 0 -12 -10 -23 -22z"/>
<path d="M2136 855 c4 -8 10 -15 15 -15 4 0 6 7 3 15 -4 8 -10 15 -15 15 -4 0
-6 -7 -3 -15z"/>
<path d="M2838 863 c28 -2 76 -2 105 0 28 2 5 3 -53 3 -58 0 -81 -1 -52 -3z"/>
<path d="M3620 840 l0 -30 -67 -2 -68 -2 69 -5 c66 -6 70 -7 80 -36 14 -39 57
-108 63 -101 3 2 -6 20 -19 38 -22 30 -48 98 -48 127 0 6 7 11 16 11 14 0 14
3 4 15 -19 23 -30 18 -30 -15z"/>
<path d="M2020 856 c0 -2 7 -7 16 -10 8 -3 12 -2 9 4 -6 10 -25 14 -25 6z"/>
<path d="M2450 850 c-47 -4 7 -5 120 -2 113 3 207 6 209 8 6 6 -232 1 -329 -6z"/>
<path d="M4052 840 c0 -14 2 -19 5 -12 2 6 2 18 0 25 -3 6 -5 1 -5 -13z"/>
<path d="M2315 823 c0 -26 -3 -28 -47 -31 -38 -2 -47 0 -51 15 -4 14 -5 13 -6
-4 -1 -21 3 -23 48 -23 l50 0 4 -37 4 -38 1 38 c1 20 5 37 10 37 4 0 7 16 8
35 0 20 -4 35 -11 35 -6 0 -11 -12 -10 -27z"/>
<path d="M2162 810 c0 -14 2 -19 5 -12 2 6 2 18 0 25 -3 6 -5 1 -5 -13z"/>
<path d="M1563 813 c174 -7 64 -33 -139 -33 -92 0 -104 2 -105 18 -1 9 -7 -10
-14 -43 -6 -33 -14 -67 -17 -75 -3 -8 -3 -12 -1 -7 3 4 15 7 28 7 41 0 55 11
55 41 0 25 -4 29 -27 29 -16 0 -23 4 -17 9 5 5 79 10 164 12 133 3 155 2 156
-11 0 -17 42 -100 49 -100 3 0 -4 18 -15 40 -11 21 -20 57 -20 80 l0 40 -92
-2 -93 -2 88 -3z m-205 -95 c-2 -15 -11 -24 -25 -26 -19 -3 -23 1 -23 22 0 21
5 26 26 26 21 0 25 -4 22 -22z"/>
<path d="M2060 813 c0 -4 5 -15 10 -23 8 -13 10 -13 10 2 0 9 -4 20 -10 23 -5
3 -10 3 -10 -2z"/>
<path d="M1792 790 c0 -14 2 -19 5 -12 2 6 2 18 0 25 -3 6 -5 1 -5 -13z"/>
<path d="M2993 803 l107 -4 0 -64 0 -65 -167 -3 -168 -3 168 -2 c138 -2 167
-4 167 -17 0 -10 -16 -15 -62 -18 l-63 -3 63 -2 c60 -2 62 -3 62 -29 0 -14 3
-24 6 -21 3 3 5 24 6 47 l0 41 208 0 c172 0 210 -3 220 -15 7 -8 17 -15 23
-15 5 0 -2 9 -17 21 -25 19 -38 20 -232 19 l-205 -1 3 63 3 63 105 6 c70 3 31
5 -115 5 -121 0 -172 -2 -112 -3z"/>
<path d="M3390 806 c0 -2 9 -6 20 -9 11 -3 20 -1 20 4 0 5 -9 9 -20 9 -11 0
-20 -2 -20 -4z"/>
<path d="M4038 779 c-9 -16 -14 -29 -9 -29 9 0 36 48 30 54 -2 3 -12 -9 -21
-25z"/>
<path d="M2468 793 l43 -4 -16 -27 -16 -27 25 27 c22 25 32 27 108 31 47 1 24
3 -52 3 -74 0 -116 -1 -92 -3z"/>
<path d="M2738 793 c6 -2 18 -2 25 0 6 3 1 5 -13 5 -14 0 -19 -2 -12 -5z"/>
<path d="M2170 758 c0 -5 7 -8 15 -8 20 0 19 -13 -5 -60 -11 -22 -18 -40 -15
-40 7 0 36 59 45 91 7 24 5 27 -16 25 -13 0 -24 -4 -24 -8z"/>
<path d="M3440 763 c0 -6 8 -17 18 -24 16 -13 16 -13 2 6 -8 11 -16 22 -17 24
-2 2 -3 0 -3 -6z"/>
<path d="M1443 743 c26 -2 68 -2 95 0 26 2 4 3 -48 3 -52 0 -74 -1 -47 -3z"/>
<path d="M1790 736 c0 -8 4 -17 9 -20 5 -4 7 3 4 14 -6 23 -13 26 -13 6z"/>
<path d="M2057 717 l-17 -32 20 24 c17 20 26 41 18 41 -2 0 -11 -15 -21 -33z"/>
<path d="M3690 741 c0 -5 7 -12 16 -15 14 -5 15 -4 4 9 -14 17 -20 19 -20 6z"/>
<path d="M4561 733 c-1 -10 -35 -13 -137 -13 l-137 0 -43 -40 c-24 -22 -48
-40 -54 -40 -7 0 -18 -7 -26 -15 -9 -8 -12 -15 -9 -15 17 0 71 38 98 68 l30
33 141 -3 141 -3 6 -30 7 -30 0 30 c1 29 -16 83 -17 58z"/>
<path d="M2146 699 c-22 -45 -20 -50 5 -11 12 18 19 35 16 38 -3 3 -12 -9 -21
-27z"/>
<path d="M4077 698 c-21 -17 -55 -37 -75 -44 -24 -8 -30 -13 -16 -14 21 0 102
49 124 75 19 23 9 18 -33 -17z"/>
<path d="M2433 698 c-11 -13 -23 -27 -26 -33 -3 -7 57 -8 176 -5 l182 5 -168
3 -169 2 16 25 c20 31 16 32 -11 3z"/>
<path d="M3848 713 c7 -3 16 -2 19 1 4 3 -2 6 -13 5 -11 0 -14 -3 -6 -6z"/>
<path d="M3948 713 c7 -3 16 -2 19 1 4 3 -2 6 -13 5 -11 0 -14 -3 -6 -6z"/>
<path d="M3898 703 c7 -3 16 -2 19 1 4 3 -2 6 -13 5 -11 0 -14 -3 -6 -6z"/>
<path d="M1833 675 c15 -14 38 -25 50 -24 16 1 13 3 -11 10 -18 6 -35 16 -39
24 -3 8 -10 15 -17 15 -6 0 2 -12 17 -25z"/>
<path d="M1995 668 c-27 -18 -28 -19 -5 -13 26 8 47 22 39 28 -2 3 -17 -4 -34
-15z"/>
<path d="M3774 665 c11 -8 24 -15 30 -15 5 0 1 7 -10 15 -10 8 -23 14 -29 14
-5 0 -1 -6 9 -14z"/>
<path d="M2298 620 c-4 -30 -8 -72 -8 -92 l0 -37 -72 0 -73 0 25 20 c20 17 21
20 5 14 -11 -3 -41 -11 -67 -17 -27 -6 -48 -15 -48 -20 0 -4 52 -8 115 -8
l115 0 2 -30 c0 -16 1 -36 2 -42 1 -7 -5 -12 -12 -10 -8 1 -11 -1 -8 -6 2 -4
-17 -8 -42 -8 -276 -2 -332 -14 -79 -17 123 -2 153 1 145 11 -17 20 5 14 44
-13 48 -33 62 -32 17 0 -45 34 -59 53 -59 86 0 18 6 29 18 32 16 4 16 5 0 6
-31 2 -24 72 10 104 15 15 33 27 39 27 6 0 14 7 17 16 4 12 -4 9 -28 -10 -19
-14 -37 -26 -40 -26 -3 0 -6 17 -8 38 -3 34 -4 32 -10 -18z"/>
<path d="M1749 646 c13 -16 51 -41 51 -33 0 2 -15 14 -32 27 -21 15 -28 17
-19 6z"/>
<path d="M1281 614 c-1 -26 4 -34 28 -43 16 -7 34 -22 40 -34 l11 -22 -5 22
c-5 20 -2 22 42 26 46 3 46 3 -12 5 -70 3 -78 7 -93 47 l-10 30 -1 -31z"/>
<path d="M1734 617 c28 -23 29 -25 10 -35 -16 -9 -13 -10 19 -9 l38 2 -28 23
c-15 13 -37 28 -48 33 -11 6 -7 0 9 -14z"/>
<path d="M3747 629 c7 -7 15 -10 18 -7 3 3 -2 9 -12 12 -14 6 -15 5 -6 -5z"/>
<path d="M3883 633 c15 -2 37 -2 50 0 12 2 0 4 -28 4 -27 0 -38 -2 -22 -4z"/>
<path d="M4430 633 c71 -4 100 -11 100 -23 0 -6 -13 -10 -30 -10 -16 0 -30 -4
-30 -9 0 -15 18 -22 22 -9 6 17 28 0 28 -22 0 -14 -5 -18 -17 -14 -16 5 -16 4
-3 -8 20 -17 11 -75 -11 -70 -11 3 -12 1 -1 -9 16 -17 15 -39 -2 -39 -8 0 -17
-6 -19 -12 -4 -10 -6 -10 -6 0 -1 9 -25 11 -93 10 l-93 -2 88 -3 c53 -2 85 -8
82 -13 -9 -14 39 -12 53 2 7 7 12 22 12 34 0 13 5 26 12 30 7 5 9 2 6 -8 -4
-8 -2 -30 2 -49 6 -21 7 6 3 73 -5 90 -3 112 11 133 l16 25 -92 -2 c-58 -1
-72 -3 -38 -5z"/>
<path d="M3995 620 c-13 -6 -15 -9 -5 -9 8 0 22 4 30 9 18 12 2 12 -25 0z"/>
<path d="M2010 600 c-68 -23 -110 -24 -157 -5 -20 8 -38 14 -40 11 -7 -7 77
-36 105 -36 33 0 133 28 147 41 11 11 13 11 -55 -11z"/>
<path d="M2097 601 c-41 -26 -46 -36 -10 -17 17 9 35 20 38 26 8 13 6 12 -28
-9z"/>
<path d="M3795 590 c16 -31 15 -33 -25 -31 -22 0 -21 -1 6 -9 29 -9 43 -31 44
-67 0 -16 -76 -18 -85 -3 -3 6 -14 9 -23 9 -15 -1 -15 -2 1 -6 9 -2 17 -10 17
-16 0 -9 14 -11 41 -9 39 4 41 3 35 -17 -19 -63 -19 -67 -5 -50 8 9 21 19 29
22 12 4 11 6 -2 6 -15 1 -16 5 -7 28 6 15 8 42 4 60 l-6 32 83 4 83 3 -81 2
c-76 2 -82 4 -92 27 -11 23 -10 25 15 25 33 0 27 5 -15 13 l-32 7 15 -30z"/>
<path d="M4345 600 c14 -15 31 -20 68 -20 28 0 47 3 43 7 -4 4 -27 6 -51 4
-26 -1 -45 2 -45 8 0 5 30 12 68 14 66 3 66 3 -17 5 -84 2 -84 2 -66 -18z"/>
<path d="M1393 603 c9 -2 25 -2 35 0 9 3 1 5 -18 5 -19 0 -27 -2 -17 -5z"/>
<path d="M1532 603 c40 -3 62 -9 70 -21 15 -19 68 -46 76 -37 3 3 -1 5 -9 6
-8 1 -3 5 11 9 23 7 23 8 -8 9 -19 1 -45 10 -59 21 -20 15 -39 20 -82 18 l-56
-2 57 -3z"/>
<path d="M3640 590 c19 -11 40 -19 45 -19 6 0 -6 8 -25 19 -19 11 -39 19 -45
19 -5 0 6 -8 25 -19z"/>
<path d="M3938 603 c7 -3 16 -2 19 1 4 3 -2 6 -13 5 -11 0 -14 -3 -6 -6z"/>
<path d="M4100 590 c-9 -6 -10 -10 -3 -10 6 0 15 5 18 10 8 12 4 12 -15 0z"/>
<path d="M1480 555 c0 -2 15 -12 33 -20 l32 -16 -25 20 c-24 20 -40 26 -40 16z"/>
<path d="M1958 553 c6 -2 18 -2 25 0 6 3 1 5 -13 5 -14 0 -19 -2 -12 -5z"/>
<path d="M2230 550 c-9 -6 -10 -10 -3 -10 6 0 15 5 18 10 8 12 4 12 -15 0z"/>
<path d="M4008 553 c7 -3 16 -2 19 1 4 3 -2 6 -13 5 -11 0 -14 -3 -6 -6z"/>
<path d="M4415 520 c21 -22 41 -40 44 -40 3 0 -13 18 -34 40 -21 22 -41 40
-44 40 -3 0 13 -18 34 -40z"/>
<path d="M3111 518 c-1 -35 -3 -38 -30 -38 -17 0 -32 -3 -35 -8 -2 -4 13 -6
35 -4 38 4 39 3 40 -29 1 -19 4 -25 6 -14 2 11 0 45 -6 75 -8 48 -9 50 -10 18z"/>
<path d="M2886 506 c-22 -7 -41 -18 -42 -24 -1 -7 0 -8 3 -2 2 5 36 10 74 10
38 0 69 4 69 9 0 6 -17 8 -37 6 -32 -4 -34 -3 -13 4 40 14 -7 11 -54 -3z"/>
<path d="M1380 500 c0 -10 92 -45 140 -54 24 -4 29 -3 15 3 l-20 9 20 4 c11 3
8 4 -7 2 -16 -2 -28 1 -28 6 0 6 -10 10 -22 10 -13 1 -40 7 -60 14 -21 8 -38
10 -38 6z"/>
<path d="M1790 495 c46 -18 64 -17 25 0 -16 8 -37 14 -45 14 -8 0 1 -7 20 -14z"/>
<path d="M3600 501 c-8 -5 -35 -12 -59 -16 -30 -5 -39 -10 -30 -16 19 -12 42
-11 34 1 -4 6 11 10 37 10 31 0 39 -3 28 -10 -12 -8 -9 -10 13 -10 16 0 26 -4
22 -10 -7 -12 2 -12 30 -1 16 7 14 9 -15 16 -26 6 -30 9 -15 12 44 9 51 16 25
23 -34 11 -52 11 -70 1z m43 -8 c-7 -2 -19 -2 -25 0 -7 3 -2 5 12 5 14 0 19
-2 13 -5z"/>
<path d="M1624 486 c16 -8 25 -15 20 -18 -5 -3 -3 -3 4 -1 8 1 21 3 30 4 9 0
-3 7 -28 15 -55 17 -65 17 -26 0z"/>
<path d="M1998 483 c6 -2 18 -2 25 0 6 3 1 5 -13 5 -14 0 -19 -2 -12 -5z"/>
<path d="M2895 471 l-30 -7 25 -7 c34 -9 42 -9 35 3 -3 6 3 10 15 10 12 0 18
-4 15 -10 -8 -12 5 -13 23 -1 10 6 8 10 -10 14 -26 8 -31 7 -73 -2z"/>
<path d="M1718 463 c7 -3 16 -2 19 1 4 3 -2 6 -13 5 -11 0 -14 -3 -6 -6z"/>
<path d="M3580 450 c8 -5 22 -9 30 -9 10 0 8 3 -5 9 -27 12 -43 12 -25 0z"/>
<path d="M1808 443 c7 -3 16 -2 19 1 4 3 -2 6 -13 5 -11 0 -14 -3 -6 -6z"/>
<path d="M1568 433 c7 -3 16 -2 19 1 4 3 -2 6 -13 5 -11 0 -14 -3 -6 -6z"/>
<path d="M1848 433 c6 -2 18 -2 25 0 6 3 1 5 -13 5 -14 0 -19 -2 -12 -5z"/>
<path d="M1913 423 c9 -2 23 -2 30 0 6 3 -1 5 -18 5 -16 0 -22 -2 -12 -5z"/>
<path d="M2568 423 c-199 -3 -218 -5 -217 -21 0 -10 3 -12 6 -4 2 7 22 12 44
12 24 0 38 -4 34 -10 -7 -12 12 -50 26 -50 6 0 3 7 -5 16 -25 24 -19 34 22 36
85 3 115 -9 92 -37 -8 -10 -9 -15 -1 -15 6 0 13 11 17 25 l6 26 239 -3 c132
-2 239 0 239 4 0 4 -37 9 -82 11 l-83 3 87 2 c61 1 88 -2 91 -10 3 -8 6 -6 6
5 1 16 -12 17 -151 15 -84 -2 -251 -4 -370 -5z"/>
<path d="M3171 403 c0 -16 4 -46 9 -68 7 -33 8 -29 4 22 l-6 62 34 4 33 4 -37
1 c-35 2 -38 0 -37 -25z"/>
<path d="M3250 420 c0 -5 -11 -10 -24 -10 -14 0 -28 -4 -31 -10 -8 -13 58 0
68 14 6 8 10 7 14 -1 2 -7 13 -13 24 -13 10 0 19 6 19 13 0 9 3 8 9 -2 7 -11
9 -11 14 0 4 10 6 10 6 2 1 -9 19 -13 59 -12 l57 2 -50 8 c-94 16 -165 20
-165 9z"/>
<path d="M3513 423 c9 -2 25 -2 35 0 9 3 1 5 -18 5 -19 0 -27 -2 -17 -5z"/>
<path d="M3598 423 c17 -2 47 -2 65 0 17 2 3 4 -33 4 -36 0 -50 -2 -32 -4z"/>
<path d="M1678 413 c6 -2 18 -2 25 0 6 3 1 5 -13 5 -14 0 -19 -2 -12 -5z"/>
<path d="M1988 413 c6 -2 18 -2 25 0 6 3 1 5 -13 5 -14 0 -19 -2 -12 -5z"/>
<path d="M3755 410 c3 -5 -9 -38 -27 -72 -38 -73 -49 -98 -43 -98 7 0 85 154
85 167 0 7 -5 13 -11 13 -5 0 -8 -4 -4 -10z"/>
<path d="M3933 413 c37 -2 67 -6 67 -9 0 -3 -10 -15 -22 -26 -14 -12 -9 -11
12 4 19 14 42 27 50 31 8 3 -28 5 -80 4 -77 -1 -82 -2 -27 -4z"/>
<path d="M4113 413 c32 -2 81 -2 110 0 29 2 3 3 -58 3 -60 0 -84 -1 -52 -3z"/>
<path d="M1743 403 c9 -2 23 -2 30 0 6 3 -1 5 -18 5 -16 0 -22 -2 -12 -5z"/>
<path d="M2070 399 c25 -4 59 -7 75 -7 22 0 18 3 -15 9 -25 4 -58 7 -75 7 -22
0 -18 -3 15 -9z"/>
<path d="M3513 403 c26 -2 67 -2 90 0 23 2 2 3 -48 3 -49 0 -68 -1 -42 -3z"/>
<path d="M3684 342 c-1 -44 0 -50 6 -27 10 41 12 85 3 85 -5 0 -9 -26 -9 -58z"/>
<path d="M3850 394 c35 -7 98 -9 94 -2 -3 5 -29 7 -57 7 -29 -1 -45 -3 -37 -5z"/>
<path d="M4383 393 c9 -2 23 -2 30 0 6 3 -1 5 -18 5 -16 0 -22 -2 -12 -5z"/>
<path d="M1878 383 c6 -2 18 -2 25 0 6 3 1 5 -13 5 -14 0 -19 -2 -12 -5z"/>
<path d="M3095 365 c3 -16 8 -38 12 -49 3 -11 1 -16 -5 -12 -5 3 -13 22 -17
42 -3 20 -9 33 -12 30 -3 -3 6 -42 21 -86 16 -45 25 -88 22 -96 -4 -9 -1 -14
5 -12 6 2 13 22 14 43 3 29 1 35 -5 20 -5 -11 -9 -15 -9 -8 -1 6 -4 19 -8 29
-4 12 -3 15 6 10 13 -9 7 25 -16 84 -12 32 -13 33 -8 5z"/>
<path d="M4258 383 c12 -2 30 -2 40 0 9 3 -1 5 -23 4 -22 0 -30 -2 -17 -4z"/>
<path d="M4195 370 c-3 -6 1 -7 9 -4 18 7 21 14 7 14 -6 0 -13 -4 -16 -10z"/>
<path d="M3199 330 c-6 -88 4 -156 21 -145 6 3 10 3 10 -2 0 -4 27 -9 60 -10
33 -1 60 2 60 7 0 6 -27 10 -60 10 -47 0 -60 3 -60 15 0 8 -4 15 -9 15 -5 0
-7 12 -5 28 2 15 0 50 -5 77 l-9 50 -3 -45z"/>
<path d="M3761 344 c-16 -37 -9 -39 11 -3 9 16 14 29 9 29 -4 0 -13 -12 -20
-26z"/>
<path d="M4283 363 c15 -2 39 -2 55 0 15 2 2 4 -28 4 -30 0 -43 -2 -27 -4z"/>
<path d="M2419 345 c17 -13 20 -20 11 -25 -9 -6 -4 -13 16 -24 16 -8 22 -16
14 -16 -8 -1 23 -19 70 -41 46 -22 90 -37 96 -35 7 3 14 1 16 -4 2 -5 34 -17
73 -27 58 -14 66 -18 45 -24 l-25 -7 25 -1 c14 -1 34 -3 45 -5 11 -2 14 -1 8
1 -15 5 -16 13 -3 33 5 8 10 10 10 4 0 -17 177 -37 280 -32 83 4 82 4 -35 8
l-120 4 100 6 100 6 -130 4 c-93 2 -119 5 -90 10 37 7 36 7 -12 5 -33 -2 -53
1 -56 8 -3 9 -14 9 -48 0 -34 -9 -40 -9 -28 1 14 10 4 16 -69 40 -152 50 -175
63 -170 91 3 15 1 25 -7 25 -7 0 -10 -11 -7 -32 4 -25 2 -30 -11 -25 -12 4
-15 1 -12 -14 3 -16 0 -19 -11 -15 -9 3 -19 6 -22 6 -4 0 0 5 8 10 13 9 13 10
0 10 -12 0 -12 2 -2 9 10 6 3 14 -25 32 -47 29 -66 37 -34 14z m46 -35 c3 -5
2 -10 -4 -10 -5 0 -13 5 -16 10 -3 6 -2 10 4 10 5 0 13 -4 16 -10z m100 -46
c13 -5 14 -8 3 -15 -19 -12 -25 -11 -25 6 0 17 0 17 22 9z m57 -31 c-6 -2 -10
-9 -6 -14 3 -5 1 -9 -5 -9 -5 0 -12 4 -15 9 -6 9 10 19 29 19 6 0 4 -2 -3 -5z"/>
<path d="M3795 325 c-17 -42 -16 -48 9 -39 13 5 14 9 6 14 -9 6 -9 13 0 30 6
12 9 24 6 27 -2 3 -12 -12 -21 -32z"/>
<path d="M2170 340 c8 -5 20 -10 25 -10 6 0 3 5 -5 10 -8 5 -19 10 -25 10 -5
0 -3 -5 5 -10z"/>
<path d="M2488 343 c7 -3 16 -2 19 1 4 3 -2 6 -13 5 -11 0 -14 -3 -6 -6z"/>
<path d="M3859 332 c-29 -24 -36 -56 -8 -42 24 13 25 21 2 14 -10 -4 -5 5 12
20 34 29 29 36 -6 8z"/>
<path d="M3141 324 c0 -11 3 -14 6 -6 3 7 2 16 -1 19 -3 4 -6 -2 -5 -13z"/>
<path d="M4184 324 c-18 -14 -18 -14 6 -3 31 14 36 19 24 19 -6 0 -19 -7 -30
-16z"/>
<path d="M2210 325 c0 -7 61 -37 66 -33 2 3 -12 12 -31 21 -19 9 -35 15 -35
12z"/>
<path d="M2380 310 c14 -11 29 -20 34 -20 5 0 -3 9 -17 20 -14 11 -29 20 -34
20 -4 0 3 -9 17 -20z"/>
<path d="M4070 315 c-14 -8 -20 -14 -14 -15 5 0 19 7 30 15 24 18 16 19 -16 0z"/>
<path d="M3150 292 c0 -7 10 -42 23 -78 15 -45 28 -66 42 -70 11 -3 74 -3 140
-2 l120 4 -132 2 c-75 1 -134 6 -138 12 -3 6 -17 40 -30 78 -13 37 -24 61 -25
54z"/>
<path d="M3711 242 c-17 -33 -36 -62 -43 -65 -8 -4 -6 -6 5 -6 9 -1 17 -5 17
-11 0 -5 12 -10 28 -9 l27 1 -25 8 c-14 4 -20 9 -15 9 6 1 4 5 -3 9 -10 7 -8
15 8 35 12 15 18 27 15 27 -4 0 0 12 10 26 9 14 14 28 11 31 -2 3 -18 -22 -35
-55z"/>
<path d="M3660 269 c0 -5 5 -7 10 -4 6 3 10 8 10 11 0 2 -4 4 -10 4 -5 0 -10
-5 -10 -11z"/>
<path d="M3968 273 c7 -3 16 -2 19 1 4 3 -2 6 -13 5 -11 0 -14 -3 -6 -6z"/>
<path d="M3764 254 c-18 -14 -18 -14 6 -3 31 14 36 19 24 19 -6 0 -19 -7 -30
-16z"/>
<path d="M3920 260 c-8 -5 -10 -10 -5 -10 6 0 17 5 25 10 8 5 11 10 5 10 -5 0
-17 -5 -25 -10z"/>
<path d="M4030 260 c-8 -5 -10 -10 -5 -10 6 0 17 5 25 10 8 5 11 10 5 10 -5 0
-17 -5 -25 -10z"/>
<path d="M3835 231 c-22 -9 -51 -23 -65 -29 l-25 -12 25 6 c14 4 43 14 65 24
22 10 47 20 55 23 13 5 13 5 0 6 -8 0 -33 -8 -55 -18z"/>
<path d="M2450 225 c14 -8 30 -14 35 -14 6 0 -1 6 -15 14 -14 8 -29 14 -35 14
-5 0 1 -6 15 -14z"/>
<path d="M3935 225 c-16 -7 -23 -14 -15 -14 8 0 26 6 40 14 32 18 14 18 -25 0z"/>
<path d="M3670 221 c0 -6 -10 -16 -22 -21 -23 -9 -23 -9 -2 -9 20 -1 41 26 29
37 -3 3 -5 0 -5 -7z"/>
<path d="M3141 215 c1 -19 18 -51 18 -35 0 8 -4 22 -9 30 -5 8 -9 11 -9 5z"/>
<path d="M3568 203 c6 -2 18 -2 25 0 6 3 1 5 -13 5 -14 0 -19 -2 -12 -5z"/>
<path d="M3865 200 c-13 -6 -15 -9 -5 -9 8 0 22 4 30 9 18 12 2 12 -25 0z"/>
<path d="M3488 193 c12 -2 32 -2 45 0 12 2 2 4 -23 4 -25 0 -35 -2 -22 -4z"/>
<path d="M3573 183 c9 -2 25 -2 35 0 9 3 1 5 -18 5 -19 0 -27 -2 -17 -5z"/>
<path d="M3780 175 c-19 -7 -28 -13 -20 -13 8 0 31 6 50 13 19 7 28 13 20 13
-8 0 -31 -6 -50 -13z"/>
<path d="M3428 173 c17 -2 47 -2 65 0 17 2 3 4 -33 4 -36 0 -50 -2 -32 -4z"/>
<path d="M2665 160 c11 -5 29 -8 40 -8 16 0 15 2 -5 8 -34 11 -60 11 -35 0z"/>
<path d="M3565 160 c-27 -7 -27 -8 -5 -8 14 0 36 4 50 8 20 6 21 8 5 8 -11 0
-33 -4 -50 -8z"/>
<path d="M3508 153 c7 -3 16 -2 19 1 4 3 -2 6 -13 5 -11 0 -14 -3 -6 -6z"/>
<path d="M3623 143 c9 -2 25 -2 35 0 9 3 1 5 -18 5 -19 0 -27 -2 -17 -5z"/>
<path d="M3355 124 l-160 -12 150 5 c145 5 306 21 210 20 -22 0 -112 -6 -200
-13z"/>
<path d="M2875 119 c22 -4 56 -8 75 -7 33 0 32 1 -10 9 -25 4 -58 7 -75 7 -26
0 -25 -1 10 -9z"/>
<path d="M3028 103 c12 -2 32 -2 45 0 12 2 2 4 -23 4 -25 0 -35 -2 -22 -4z"/>
<path d="M3118 103 c6 -2 18 -2 25 0 6 3 1 5 -13 5 -14 0 -19 -2 -12 -5z"/>
</g>
</svg>
